:SAMPLES-PER-SECOND 30
:FRAME-RANGE 1-1390
:FULLY-SPECIFIED
:DEGREES
1173
root  -50.3304 36.9794 -23.304 178.927 45.5783 -172.41
RightUpLeg  -89.2366 -10.6099 61.1248
RightLeg  111.859 -0.721992 2.49645
RightFoot  -35.1277 0.880593 5.31794
RightToes  6.35937e-011 1.2921e-014 -6.02303e-014
Spine  16.8819 -3.69117 3.33621
Spine1  -3.85418 -0.968897 0.318417
HEad  -1.24218 12.7896 -4.16414
LeftShoulder1  3.49293 -11.7063 -16.819
LeftArm  40.2109 -31.6242 -67.9043
LeftForeArm  32.4902 -1.84619 -18.0636
LeftHand  -0.0290271 7.80307 0.609587
RightShoulder  2.5878 5.82369 22.1867
RightArm  0.794844 37.0353 97.1632
RightForeArm  115.108 -3.54823 5.17292
RightHand  1.50457 -18.584 -13.5247
LeftUpLeg  -7.47827 -13.9772 -8.74195
LeftLeg  41.4109 3.88025 4.06568
LeftFoot  -21.3196 0.88911 8.69539
LeftToes  4.52251e-011 4.07896e-011 -5.42348e-012
1174
root  -50.945 35.9312 -22.5954 176.962 43.581 -173.668
RightUpLeg  -90.0479 -12.6635 59.3561
RightLeg  112.422 0.0228012 0.799695
RightFoot  -34.6523 0.672817 4.40704
RightToes  6.35937e-011 1.2921e-014 -6.02303e-014
Spine  18.0963 -4.0779 3.2029
Spine1  -2.6365 -1.24684 -0.820431
HEad  -5.20822 10.5106 -3.29748
LeftShoulder1  3.54886 -11.9382 -16.8317
LeftArm  47.9631 -32.6936 -68.6254
LeftForeArm  26.4617 -3.98901 -18.0662
LeftHand  -0.0229329 8.03899 0.861129
RightShoulder  2.5728 5.84436 21.9437
RightArm  1.40413 37.1542 96.6356
RightForeArm  115.523 -3.60224 5.61991
RightHand  1.75674 -18.9934 -15.172
LeftUpLeg  -10.8208 -16.0865 -10.4705
LeftLeg  47.9682 4.75864 6.08332
LeftFoot  -24.1264 1.12583 8.7321
LeftToes  4.52251e-011 4.07896e-011 -5.42348e-012
1175
root  -51.4242 35.2401 -21.9962 175.706 45.048 -173.032
RightUpLeg  -86.6694 -13.3351 58.4543
RightLeg  113.76 2.38796 -4.12599
RightFoot  -34.5045 0.333243 2.77454
RightToes  6.35937e-011 1.2921e-014 -6.02303e-014
Spine  18.5236 -3.11094 4.96039
Spine1  -0.553466 0.2157 -2.97597
HEad  -6.6066 8.83053 -2.50711
LeftShoulder1  3.61602 -12.0083 -17.1922
LeftArm  45.3359 -32.8548 -69.3308
LeftForeArm  29.6575 -3.22981 -18.0519
LeftHand  -0.0207514 8.15229 0.937876
RightShoulder  2.69476 6.28539 21.9264
RightArm  3.53357 37.2752 94.8933
RightForeArm  114.898 -3.96474 7.67913
RightHand  2.10831 -19.5485 -17.3162
LeftUpLeg  -12.7719 -14.2951 -9.87763
LeftLeg  52.7964 4.15303 6.35187
LeftFoot  -25.6319 1.20564 8.36817
LeftToes  4.52251e-011 4.07896e-011 -5.42348e-012
1176
root  -51.747 34.8646 -21.669 174.25 47.056 -173.145
RightUpLeg  -83.3251 -12.7463 56.29
RightLeg  118.471 3.80489 -5.72274
RightFoot  -34.68 0.150425 1.87386
RightToes  6.35937e-011 1.2921e-014 -6.02303e-014
Spine  18.5078 -2.69116 4.55983
Spine1  -0.562236 0.587898 -3.72068
HEad  -3.59261 10.4129 -0.960812
LeftShoulder1  3.42176 -10.9411 -17.6382
LeftArm  50.2244 -29.7123 -68.7741
LeftForeArm  23.3493 -4.84524 -18.0263
LeftHand  -0.0268725 7.16796 0.733924
RightShoulder  2.7628 6.27763 22.7074
RightArm  2.82087 35.7228 95.0823
RightForeArm  118.304 -3.81562 7.7273
RightHand  1.98595 -19.7514 -16.1498
LeftUpLeg  -13.3639 -10.9113 -9.50517
LeftLeg  54.9135 3.33764 5.62834
LeftFoot  -26.3622 1.34177 8.95093
LeftToes  4.52251e-011 4.07896e-011 -5.42348e-012
1177
root  -52.099 35.0107 -21.4095 173.915 47.0605 -172.852
RightUpLeg  -82.1293 -12.426 53.5079
RightLeg  123.998 3.54413 -4.22186
RightFoot  -35.1286 -0.0211344 1.03782
RightToes  6.35937e-011 1.2921e-014 -6.02303e-014
Spine  17.5215 -2.9686 3.86375
Spine1  -0.741973 -0.0543517 -3.34756
HEad  -0.421188 11.1351 -0.0238975
LeftShoulder1  3.42488 -10.4703 -18.5536
LeftArm  57.4309 -25.8321 -68.284
LeftForeArm  13.7664 -7.16345 -17.7802
LeftHand  -0.0258258 6.46578 0.897997
RightShoulder  2.71976 6.149 22.6388
RightArm  1.91147 33.6496 95.6789
RightForeArm  123.869 -3.54124 7.58145
RightHand  1.82121 -20.7031 -14.0015
LeftUpLeg  -13.3027 -9.96805 -8.97096
LeftLeg  54.0365 2.77187 4.62417
LeftFoot  -25.1174 1.29934 9.47806
LeftToes  4.52251e-011 4.07896e-011 -5.42348e-012
1178
root  -52.5121 35.7726 -21.0504 174.62 46.9509 -172.113
RightUpLeg  -81.6166 -12.1617 51.8702
RightLeg  127.144 4.1739 -4.50077
RightFoot  -35.818 -0.208711 0.165191
RightToes  6.35937e-011 1.2921e-014 -6.02303e-014
Spine  16.5545 -2.71817 3.67117
Spine1  -0.781004 -0.0376899 -2.97496
HEad  1.03276 9.59235 0.860686
LeftShoulder1  3.51598 -10.4112 -19.386
LeftArm  51.4104 -24.2209 -69.1775
LeftForeArm  18.2283 -5.50689 -18.0842
LeftHand  -0.0181414 6.6392 1.50196
RightShoulder  2.68889 6.02479 22.6927
RightArm  2.72825 32.3433 94.3643
RightForeArm  125.916 -3.67391 8.97673
RightHand  1.84085 -21.2132 -13.7024
LeftUpLeg  -12.4743 -9.39568 -7.67347
LeftLeg  49.4766 2.13342 3.15112
LeftFoot  -21.6061 1.01878 9.86613
LeftToes  4.52251e-011 4.07896e-011 -5.42348e-012
1179
root  -53.0453 37.0356 -20.5693 176 46.1497 -171.64
RightUpLeg  -82.9093 -12.6422 52.2174
RightLeg  127.66 6.18172 -6.80286
RightFoot  -36.1085 -0.279753 -0.151063
RightToes  6.35937e-011 1.2921e-014 -6.02303e-014
Spine  15.8825 -2.68595 3.60512
Spine1  -1.17096 0.0268599 -3.10481
HEad  0.751688 7.68701 2.22656
LeftShoulder1  3.61147 -10.4143 -20.1278
LeftArm  43.6932 -24.2036 -69.2545
LeftForeArm  25.1558 -3.2548 -18.2318
LeftHand  -0.0115145 6.96378 1.77886
RightShoulder  2.6321 5.91467 22.4019
RightArm  2.72371 32.1251 93.5216
RightForeArm  124.352 -3.79819 9.32704
RightHand  1.78822 -20.9659 -13.5413
LeftUpLeg  -11.0222 -9.6984 -6.32925
LeftLeg  41.0707 1.09396 1.43766
LeftFoot  -15.4326 0.443583 9.78965
LeftToes  4.52251e-011 4.07896e-011 -5.42348e-012
1180
root  -53.6696 38.4596 -19.9829 177.562 44.3362 -171.607
RightUpLeg  -86.0014 -13.5069 54.032
RightLeg  126.558 7.09657 -8.20757
RightFoot  -35.7191 -0.156993 0.402124
RightToes  6.35937e-011 1.2921e-014 -6.02303e-014
Spine  15.6324 -3.00549 3.15104
Spine1  -2.02048 -0.253205 -2.95294
HEad  -0.183241 6.021 3.28582
LeftShoulder1  3.73536 -10.8263 -20.2431
LeftArm  43.1023 -24.6232 -68.8731
LeftForeArm  26.1318 -3.01236 -18.2221
LeftHand  -0.013793 7.02014 1.59353
RightShoulder  2.57254 5.89489 21.7763
RightArm  1.75728 33.2357 93.7647
RightForeArm  121.818 -3.73664 8.2291
RightHand  1.61102 -20.1666 -12.9283
LeftUpLeg  -9.32249 -11.4972 -5.28481
LeftLeg  30.5339 -0.252589 0.209323
LeftFoot  -6.79719 -0.291306 8.36003
LeftToes  4.52251e-011 4.07896e-011 -5.42348e-012
1181
root  -54.2826 39.6319 -19.3584 179.316 42.438 -171.685
RightUpLeg  -89.2158 -13.071 55.5302
RightLeg  124.611 5.34717 -6.52062
RightFoot  -35.6068 0.187424 2.00273
RightToes  6.35937e-011 1.2921e-014 -6.02303e-014
Spine  15.1086 -3.14807 2.34063
Spine1  -2.92462 -0.489236 -2.20417
HEad  -0.403603 4.35904 3.84486
LeftShoulder1  3.88805 -11.5392 -19.9809
LeftArm  47.1667 -25.8085 -68.8106
LeftForeArm  23.8786 -4.15413 -18.1427
LeftHand  -0.0170657 7.08119 1.35526
RightShoulder  2.55239 5.93454 21.4152
RightArm  1.20967 34.284 93.4276
RightForeArm  117.631 -3.83691 7.66797
RightHand  1.42266 -19.4717 -12.0667
LeftUpLeg  -8.41434 -12.4776 -3.8728
LeftLeg  21.6546 -4.31488 -1.13655
LeftFoot  -1.1394 0.028505 -0.242346
LeftToes  4.52251e-011 4.07896e-011 -5.42348e-012
1182
root  -54.9063 40.2956 -18.7944 -179.866 41.5879 -171.935
RightUpLeg  -90.9172 -11.8074 55.51
RightLeg  121.993 2.4117 -2.90219
RightFoot  -35.6448 0.396072 2.96972
RightToes  6.35937e-011 1.2921e-014 -6.02303e-014
Spine  15.0215 -3.3232 2.09355
Spine1  -3.95743 -0.516909 -2.50248
HEad  0.264096 3.23674 4.38337
LeftShoulder1  3.95639 -11.8109 -19.9592
LeftArm  47.3953 -27.2776 -68.2625
LeftForeArm  25.2154 -4.19239 -18.0808
LeftHand  -0.0162634 7.18618 1.36283
RightShoulder  2.5323 5.87304 21.3782
RightArm  1.41928 34.9383 93.4881
RightForeArm  114.354 -3.9873 7.66255
RightHand  1.41295 -18.903 -12.4721
LeftUpLeg  -8.56301 -12.4376 -3.42759
LeftLeg  21.2736 -10.9264 -3.53888
LeftFoot  -4.12437 0.25954 -3.72263
LeftToes  4.52251e-011 4.07896e-011 -5.42348e-012
1183
root  -55.6065 40.4389 -18.186 179.762 41.6832 -171.77
RightUpLeg  -90.7623 -11.1859 55.9923
RightLeg  118.428 1.12585 -1.19288
RightFoot  -35.2426 0.532045 3.65005
RightToes  6.35937e-011 1.2921e-014 -6.02303e-014
Spine  16.1782 -3.41724 2.7053
Spine1  -4.12275 -0.414044 -3.30502
HEad  0.395917 2.8795 4.27195
LeftShoulder1  3.91301 -11.5653 -20.1116
LeftArm  43.9308 -28.924 -67.275
LeftForeArm  28.8788 -3.09 -18.1006
LeftHand  -0.00169824 8.02015 1.74091
RightShoulder  2.52297 5.9133 21.1412
RightArm  1.87366 35.3496 94.2941
RightForeArm  112.871 -4.04902 7.617
RightHand  1.60539 -18.7523 -14.1917
LeftUpLeg  -8.52967 -16.1254 -3.49924
LeftLeg  26.0818 -8.64085 -4.23218
LeftFoot  -7.12502 0.214988 -4.67853
LeftToes  4.52251e-011 4.07896e-011 -5.42348e-012
1184
root  -56.3276 40.1656 -17.6373 -179.857 42.5745 -170.845
RightUpLeg  -89.5116 -10.3541 57.9716
RightLeg  114.972 1.26002 -1.68688
RightFoot  -35.0062 0.602951 4.01792
RightToes  6.35937e-011 1.2921e-014 -6.02303e-014
Spine  16.7406 -3.14635 3.90726
Spine1  -3.77677 0.0540822 -3.63608
HEad  0.024577 2.89114 3.504
LeftShoulder1  3.90602 -11.6293 -19.94
LeftArm  35.8042 -30.6564 -66.5077
LeftForeArm  36.5977 -0.77121 -17.9194
LeftHand  -0.00395677 8.11003 1.61507
RightShoulder  2.58705 6.15231 21.1293
RightArm  2.20895 35.8222 94.8335
RightForeArm  112.667 -4.03955 7.49883
RightHand  1.85365 -18.8128 -16.1588
LeftUpLeg  -9.2466 -17.4002 -3.52408
LeftLeg  33.2662 -4.40737 -2.74055
LeftFoot  -10.3392 0.100982 -4.4608
LeftToes  4.52251e-011 4.07896e-011 -5.42348e-012
1185
root  -57.0093 39.485 -17.0973 -179.162 43.7999 -169.88
RightUpLeg  -88.0163 -9.29504 59.4193
RightLeg  112.727 0.808872 -0.91479
RightFoot  -34.6883 0.702598 4.54532
RightToes  6.35937e-011 1.2921e-014 -6.02303e-014
Spine  17.0289 -2.75577 4.33529
Spine1  -3.49142 0.439714 -3.29567
HEad  -0.760014 3.48274 3.17735
LeftShoulder1  3.7354 -11.5342 -18.8831
LeftArm  35.6984 -31.7892 -66.5416
LeftForeArm  37.3757 -0.722514 -17.8877
LeftHand  -0.01668 7.80091 1.16451
RightShoulder  2.65815 6.2737 21.5545
RightArm  1.88278 36.0517 95.5378
RightForeArm  112.083 -3.98622 6.99839
RightHand  1.92987 -18.7856 -16.8124
LeftUpLeg  -10.2761 -18.3497 -3.44195
LeftLeg  40.2565 0.952849 1.2634
LeftFoot  -8.90306 0.0975829 -2.07445
LeftToes  4.52251e-011 4.07896e-011 -5.42348e-012
